<?xml version="1.0" standalone="no"?>
<!DOCTYPE svg PUBLIC "-//W3C//DTD SVG 20010904//EN"
 "http://www.w3.org/TR/2001/REC-SVG-20010904/DTD/svg10.dtd">
<svg version="1.0" xmlns="http://www.w3.org/2000/svg"
 width="1254.000000pt" height="1254.000000pt" viewBox="0 0 1254.000000 1254.000000"
 preserveAspectRatio="xMidYMid meet">

<g transform="translate(0.000000,1254.000000) scale(0.100000,-0.100000)"
fill="#000000" stroke="none">
<path d="M8615 10723 c-509 -62 -893 -317 -1186 -784 -126 -202 -326 -638
-784 -1704 -57 -132 -169 -393 -250 -580 -81 -187 -192 -446 -247 -575 -55
-129 -103 -238 -106 -242 -4 -4 -23 27 -41 70 -77 174 -497 1097 -661 1452
-32 69 -106 231 -165 360 -59 129 -147 321 -195 425 -198 427 -532 1159 -630
1380 -30 66 -58 126 -63 133 -7 9 -155 12 -678 12 -377 0 -670 -4 -673 -9 -10
-16 18 -28 81 -35 136 -15 270 -67 388 -151 99 -70 159 -159 197 -290 l23 -80
0 -1880 c0 -1505 -3 -1901 -13 -1985 -57 -448 -247 -698 -613 -803 -52 -16
-84 -30 -84 -38 0 -12 131 -14 795 -14 660 0 795 2 795 13 0 9 -34 23 -95 38
-358 92 -540 314 -617 754 -15 86 -17 272 -20 1955 -2 1338 0 1855 8 1842 6
-10 53 -109 104 -220 101 -220 213 -458 380 -807 59 -124 172 -360 250 -525
78 -165 215 -451 303 -635 151 -316 198 -414 358 -747 210 -437 644 -1357 686
-1452 11 -27 22 -41 28 -35 5 5 61 126 123 269 105 238 251 569 397 900 214
484 429 958 715 1575 227 491 487 1011 620 1245 398 696 778 1020 1299 1110
49 8 116 15 149 15 95 0 57 17 -76 35 -107 14 -415 19 -502 8z"/>
<path d="M8472 10133 c-82 -142 -113 -203 -105 -203 5 0 27 37 50 83 23 45 56
106 73 135 18 28 29 52 26 52 -3 0 -23 -30 -44 -67z"/>
<path d="M8340 9900 c-6 -11 -9 -20 -8 -20 2 0 11 9 21 20 9 11 13 20 7 20 -5
0 -14 -9 -20 -20z"/>
<path d="M8306 9835 c-9 -26 -7 -32 5 -12 6 10 9 21 6 23 -2 3 -7 -2 -11 -11z"/>
<path d="M8306 9785 c-9 -26 -7 -32 5 -12 6 10 9 21 6 23 -2 3 -7 -2 -11 -11z"/>
<path d="M8256 9725 c-9 -26 -7 -32 5 -12 6 10 9 21 6 23 -2 3 -7 -2 -11 -11z"/>
<path d="M8226 9649 c-9 -23 -15 -43 -13 -46 3 -2 12 15 21 38 9 23 15 43 13
46 -3 2 -12 -15 -21 -38z"/>
<path d="M8246 9619 c-9 -29 -14 -54 -12 -57 3 -2 12 20 20 49 9 29 14 54 12
57 -3 2 -12 -20 -20 -49z"/>
<path d="M8202 9450 c0 -14 2 -19 5 -12 2 6 2 18 0 25 -3 6 -5 1 -5 -13z"/>
<path d="M8140 9374 c-7 -30 -10 -58 -7 -61 3 -2 8 9 11 26 3 17 9 45 12 61 3
17 3 30 1 30 -3 0 -11 -25 -17 -56z"/>
<path d="M8182 9372 c-7 -29 -12 -63 -11 -75 1 -12 7 7 15 43 8 35 13 69 11
75 -2 5 -9 -14 -15 -43z"/>
<path d="M8117 9271 c-4 -18 -7 -43 -6 -55 1 -11 5 -1 10 24 5 25 7 49 6 55
-2 5 -7 -5 -10 -24z"/>
<path d="M8092 9113 c-17 -97 -42 -438 -42 -568 1 -480 126 -921 388 -1366 67
-114 167 -313 196 -391 112 -297 55 -574 -168 -816 -64 -69 -83 -72 -38 -5 88
129 130 249 139 394 12 202 -23 326 -190 676 -63 131 -132 279 -152 328 -162
392 -233 731 -236 1125 0 85 -5 166 -9 180 -4 14 -8 20 -9 14 -32 -372 -82
-612 -174 -850 -80 -204 -130 -299 -352 -665 -180 -296 -265 -486 -296 -665
-15 -86 -6 -307 16 -389 25 -93 100 -242 162 -324 177 -230 470 -365 758 -347
226 13 421 102 593 270 283 276 377 690 246 1093 -53 165 -128 300 -421 758
-86 134 -212 394 -261 535 -37 107 -88 316 -111 455 -18 107 -34 384 -29 506
3 66 4 119 3 119 -1 0 -7 -30 -13 -67z"/>
<path d="M8152 8956 c-2 -202 15 -406 28 -355 4 14 3 50 -2 80 -5 30 -13 149
-17 264 l-8 210 -1 -199z"/>
<path d="M7976 8833 c-3 -16 -10 -55 -16 -88 -6 -33 -28 -127 -50 -210 -45
-171 -53 -206 -44 -186 5 11 8 11 16 0 7 -10 8 -5 3 14 -4 21 -3 27 6 21 9 -5
10 -1 7 14 -4 12 -3 20 2 17 10 -6 21 35 26 103 2 29 15 96 28 150 27 104 42
192 33 192 -3 0 -8 -12 -11 -27z"/>
<path d="M8122 8840 c0 -14 2 -19 5 -12 2 6 2 18 0 25 -3 6 -5 1 -5 -13z"/>
<path d="M8940 8743 c14 -3 32 -10 40 -16 13 -11 13 -10 1 6 -7 9 -25 16 -40
16 l-26 -2 25 -4z"/>
<path d="M8992 8690 c0 -14 2 -19 5 -12 2 6 2 18 0 25 -3 6 -5 1 -5 -13z"/>
<path d="M8880 8690 c-1 -50 72 -81 101 -42 11 14 11 15 -1 5 -8 -7 -27 -13
-42 -13 -23 0 -32 7 -43 33 -8 17 -14 25 -15 17z"/>
<path d="M8186 8574 c-3 -8 -3 -34 1 -57 6 -38 7 -39 14 -17 4 14 7 34 7 45
l1 20 -10 -20 c-7 -16 -8 -13 -4 13 5 34 1 42 -9 16z"/>
<path d="M8211 8494 c0 -11 3 -14 6 -6 3 7 2 16 -1 19 -3 4 -6 -2 -5 -13z"/>
<path d="M8201 8454 c0 -11 3 -14 6 -6 3 7 2 16 -1 19 -3 4 -6 -2 -5 -13z"/>
<path d="M8221 8465 c-2 -50 178 -481 209 -500 5 -3 -21 56 -57 131 -36 74
-85 191 -109 257 -24 67 -43 118 -43 112z"/>
<path d="M8211 8422 c-2 -21 32 -128 36 -116 2 5 -5 37 -16 70 -10 32 -19 53
-20 46z"/>
<path d="M9098 8413 c7 -3 16 -2 19 1 4 3 -2 6 -13 5 -11 0 -14 -3 -6 -6z"/>
<path d="M9141 8393 c7 -12 15 -20 18 -17 3 2 -3 12 -13 22 -17 16 -18 16 -5
-5z"/>
<path d="M9051 8355 c-1 -39 14 -55 54 -55 31 0 55 15 55 35 0 5 -5 2 -11 -7
-12 -21 -62 -24 -77 -5 -5 6 -12 23 -15 37 -4 22 -4 22 -6 -5z"/>
<path d="M7841 8303 c-1 -6 -4 -20 -7 -30 -5 -17 -5 -17 6 0 6 10 9 23 6 30
-3 9 -5 9 -5 0z"/>
<path d="M8251 8285 c1 -19 18 -51 18 -35 0 8 -4 22 -9 30 -5 8 -9 11 -9 5z"/>
<path d="M7791 8162 c-19 -48 -49 -118 -68 -156 -19 -37 -32 -70 -30 -72 4 -5
82 161 117 249 12 32 21 59 19 62 -3 2 -20 -35 -38 -83z"/>
<path d="M9546 8223 c-6 -14 -5 -15 5 -6 7 7 10 15 7 18 -3 3 -9 -2 -12 -12z"/>
<path d="M7821 8174 c-6 -21 -9 -40 -7 -42 2 -2 9 13 16 33 7 20 10 39 7 42
-3 3 -10 -12 -16 -33z"/>
<path d="M8281 8200 c0 -8 6 -26 15 -40 l15 -25 -7 25 c-3 14 -10 32 -15 40
-7 13 -8 13 -8 0z"/>
<path d="M9438 8073 c-87 -109 -126 -167 -153 -224 -43 -93 -27 -87 19 7 24
49 65 114 90 144 53 64 109 140 103 140 -3 0 -29 -30 -59 -67z"/>
<path d="M8340 8056 c0 -12 107 -219 125 -241 9 -11 -15 39 -51 110 -71 138
-74 143 -74 131z"/>
<path d="M7755 8003 c-8 -20 -13 -38 -10 -41 3 -3 5 -3 5 0 0 3 7 22 15 42 8
20 13 36 10 36 -2 0 -12 -16 -20 -37z"/>
<path d="M9492 7973 c-12 -38 -22 -76 -21 -84 0 -8 11 20 25 61 13 41 22 79
21 83 -1 5 -13 -22 -25 -60z"/>
<path d="M9446 7955 c-9 -26 -7 -32 5 -12 6 10 9 21 6 23 -2 3 -7 -2 -11 -11z"/>
<path d="M7726 7935 c-9 -26 -7 -32 5 -12 6 10 9 21 6 23 -2 3 -7 -2 -11 -11z"/>
<path d="M8467 7900 c15 -28 36 -60 47 -73 l18 -22 -14 25 c-8 14 -27 46 -42
73 -15 26 -30 47 -33 47 -2 0 8 -23 24 -50z"/>
<path d="M7675 7909 c-4 -6 -5 -12 -2 -15 2 -3 7 2 10 11 7 17 1 20 -8 4z"/>
<path d="M9456 7844 c-4 -14 -5 -28 -3 -31 3 -2 8 8 11 23 4 14 5 28 3 31 -3
2 -8 -8 -11 -23z"/>
<path d="M9633 7795 c0 -33 2 -45 4 -27 2 18 2 45 0 60 -2 15 -4 0 -4 -33z"/>
<path d="M7609 7783 c-67 -121 -72 -130 -52 -104 23 32 95 161 89 161 -2 0
-19 -26 -37 -57z"/>
<path d="M8535 7790 c23 -41 76 -120 81 -120 6 0 -64 111 -79 125 -7 7 -7 5
-2 -5z"/>
<path d="M9427 7738 c-9 -37 -17 -77 -16 -90 1 -13 10 13 20 56 11 44 18 84
16 90 -2 6 -11 -20 -20 -56z"/>
<path d="M9370 7697 c-12 -52 -20 -103 -17 -113 4 -16 5 -16 6 3 0 12 10 61
21 109 11 48 19 89 16 91 -2 3 -14 -38 -26 -90z"/>
<path d="M8500 7750 c6 -11 13 -20 16 -20 2 0 0 9 -6 20 -6 11 -13 20 -16 20
-2 0 0 -9 6 -20z"/>
<path d="M8540 7683 c12 -22 33 -54 46 -69 16 -19 12 -7 -12 34 -20 34 -41 65
-47 69 -5 3 0 -12 13 -34z"/>
<path d="M7606 7683 c-6 -14 -5 -15 5 -6 7 7 10 15 7 18 -3 3 -9 -2 -12 -12z"/>
<path d="M9621 7684 c0 -11 3 -14 6 -6 3 7 2 16 -1 19 -3 4 -6 -2 -5 -13z"/>
<path d="M8627 7647 c4 -7 58 -87 119 -177 61 -91 130 -198 153 -237 51 -86
67 -98 20 -15 -39 69 -288 442 -295 442 -3 0 -1 -6 3 -13z"/>
<path d="M9233 7600 c0 -36 2 -50 4 -32 2 17 2 47 0 65 -2 17 -4 3 -4 -33z"/>
<path d="M9601 7620 c-22 -75 -67 -150 -151 -250 -44 -52 -80 -99 -80 -104 0
-5 10 4 22 20 12 16 49 58 81 94 62 69 152 233 145 266 -2 12 -8 3 -17 -26z"/>
<path d="M7520 7630 c-6 -11 -8 -20 -6 -20 3 0 10 9 16 20 6 11 8 20 6 20 -3
0 -10 -9 -16 -20z"/>
<path d="M7560 7600 c-6 -11 -8 -20 -6 -20 3 0 10 9 16 20 6 11 8 20 6 20 -3
0 -10 -9 -16 -20z"/>
<path d="M9402 7595 c0 -16 2 -22 5 -12 2 9 2 23 0 30 -3 6 -5 -1 -5 -18z"/>
<path d="M7473 7553 c-16 -27 -37 -60 -47 -75 -10 -16 -16 -28 -14 -28 6 0 68
92 87 128 21 39 5 23 -26 -25z"/>
<path d="M8619 7565 c5 -11 17 -29 26 -40 l16 -20 -10 20 c-5 11 -17 29 -26
40 l-16 20 10 -20z"/>
<path d="M7537 7563 c-2 -5 -17 -30 -32 -58 -16 -27 -24 -45 -18 -40 14 14 66
105 60 105 -3 0 -8 -3 -10 -7z"/>
<path d="M9342 7530 c0 -19 2 -27 5 -17 2 9 2 25 0 35 -3 9 -5 1 -5 -18z"/>
<path d="M9392 7535 c0 -16 2 -22 5 -12 2 9 2 23 0 30 -3 6 -5 -1 -5 -18z"/>
<path d="M9377 7446 c-4 -27 -6 -67 -6 -90 1 -31 4 -25 11 29 10 81 6 135 -5
61z"/>
<path d="M9332 7415 c-1 -22 -5 -51 -8 -65 -5 -21 -4 -22 6 -7 6 9 9 39 7 65
-3 46 -3 46 -5 7z"/>
<path d="M7368 7388 c-63 -96 -70 -108 -66 -108 5 0 32 39 92 133 10 15 16 27
14 27 -3 0 -21 -24 -40 -52z"/>
<path d="M8730 7393 c18 -29 36 -56 42 -59 14 -9 -20 49 -50 84 -16 19 -14 12
8 -25z"/>
<path d="M9261 7430 c0 -8 10 -37 24 -65 14 -27 22 -39 18 -25 -10 39 -42 107
-42 90z"/>
<path d="M7357 7273 c-76 -121 -107 -176 -90 -158 12 11 144 218 162 253 6 12
10 22 7 22 -2 0 -38 -53 -79 -117z"/>
<path d="M10150 7353 c-71 -10 -225 -46 -270 -65 -71 -30 -57 -32 22 -3 75 27
233 59 253 51 8 -3 17 -1 21 5 8 14 4 15 -26 12z"/>
<path d="M10140 7300 c-6 -11 -8 -20 -6 -20 3 0 10 9 16 20 6 11 8 20 6 20 -3
0 -10 -9 -16 -20z"/>
<path d="M9318 7285 c2 -14 6 -25 8 -25 2 0 4 11 4 25 0 14 -4 25 -9 25 -4 0
-6 -11 -3 -25z"/>
<path d="M10004 7258 l-19 -23 23 19 c21 18 27 26 19 26 -2 0 -12 -10 -23 -22z"/>
<path d="M10105 7221 c-9 -28 -14 -59 -12 -68 4 -15 5 -14 6 3 0 12 8 41 16
64 8 24 13 45 11 47 -2 2 -12 -18 -21 -46z"/>
<path d="M9753 7221 c-68 -44 -141 -128 -184 -213 -16 -31 -29 -61 -29 -65 1
-4 15 19 32 52 53 104 142 200 219 240 16 9 29 18 29 20 0 9 -6 6 -67 -34z"/>
<path d="M9969 7182 c-69 -72 -232 -279 -274 -347 -33 -54 1 -13 108 130 57
77 137 175 177 218 39 42 70 77 67 77 -2 0 -38 -35 -78 -78z"/>
<path d="M9361 7234 c0 -11 3 -14 6 -6 3 7 2 16 -1 19 -3 4 -6 -2 -5 -13z"/>
<path d="M7222 7163 c-54 -85 -75 -123 -69 -123 3 0 29 39 59 88 67 106 70
112 65 112 -3 0 -27 -35 -55 -77z"/>
<path d="M9886 7154 c-47 -47 -106 -117 -133 -155 -77 -111 -114 -169 -109
-169 3 0 24 28 47 63 66 98 137 185 218 270 41 42 72 77 68 77 -3 0 -44 -39
-91 -86z"/>
<path d="M9331 7214 c0 -11 3 -14 6 -6 3 7 2 16 -1 19 -3 4 -6 -2 -5 -13z"/>
<path d="M8865 7180 c9 -16 18 -30 21 -30 2 0 -2 14 -11 30 -9 17 -18 30 -21
30 -2 0 2 -13 11 -30z"/>
<path d="M8977 7095 c15 -30 29 -53 31 -51 4 5 -46 106 -53 106 -3 0 7 -25 22
-55z"/>
<path d="M10082 7110 c0 -14 2 -19 5 -12 2 6 2 18 0 25 -3 6 -5 1 -5 -13z"/>
<path d="M7242 7088 c-14 -18 -43 -78 -38 -78 2 0 16 20 29 45 25 45 29 57 9
33z"/>
<path d="M10072 7050 c0 -14 2 -19 5 -12 2 6 2 18 0 25 -3 6 -5 1 -5 -13z"/>
<path d="M8940 7041 c0 -6 4 -13 10 -16 6 -3 7 1 4 9 -7 18 -14 21 -14 7z"/>
<path d="M7130 7010 c-6 -11 -8 -20 -6 -20 3 0 10 9 16 20 6 11 8 20 6 20 -3
0 -10 -9 -16 -20z"/>
<path d="M9336 6940 c12 -188 27 -312 36 -295 9 15 -7 165 -33 320 -7 42 -7
38 -3 -25z"/>
<path d="M9031 6989 c-1 -3 10 -32 24 -65 13 -32 24 -52 24 -44 0 15 -47 120
-48 109z"/>
<path d="M9012 6879 c6 -16 12 -28 14 -26 5 5 -13 57 -20 57 -3 0 0 -14 6 -31z"/>
<path d="M7057 6865 c-24 -50 -20 -58 4 -12 11 22 19 41 17 43 -3 2 -12 -12
-21 -31z"/>
<path d="M9979 6848 c-32 -47 -86 -98 -159 -151 -24 -17 -24 -17 10 -1 43 21
151 127 174 172 24 47 15 39 -25 -20z"/>
<path d="M7106 6838 c-33 -76 -41 -114 -10 -48 34 73 45 100 38 100 -3 0 -15
-24 -28 -52z"/>
<path d="M9505 6820 c-4 -23 -5 -43 -2 -46 2 -3 7 14 11 37 4 23 5 44 2 46 -2
2 -7 -14 -11 -37z"/>
<path d="M9607 6783 c-44 -71 -99 -174 -95 -178 2 -3 21 26 41 63 21 37 49 86
63 110 14 23 23 42 20 42 -3 0 -16 -17 -29 -37z"/>
<path d="M9052 6760 c0 -8 4 -26 8 -40 6 -20 8 -21 8 -5 0 11 -3 29 -8 40 -5
12 -8 14 -8 5z"/>
<path d="M9110 6763 c0 -6 7 -44 15 -84 8 -41 16 -87 18 -104 4 -27 4 -26 6 7
1 35 -25 177 -34 187 -3 2 -5 0 -5 -6z"/>
<path d="M9613 6708 c-22 -35 -47 -75 -57 -90 -10 -16 -15 -28 -12 -28 6 0 39
50 95 143 12 20 21 37 18 37 -3 0 -22 -28 -44 -62z"/>
<path d="M9493 6700 c0 -25 2 -35 4 -22 2 12 2 32 0 45 -2 12 -4 2 -4 -23z"/>
<path d="M9072 6670 c0 -14 2 -19 5 -12 2 6 2 18 0 25 -3 6 -5 1 -5 -13z"/>
<path d="M9725 6654 c-27 -13 -39 -21 -25 -18 29 7 100 43 85 43 -5 0 -32 -12
-60 -25z"/>
<path d="M9087 6580 c3 -36 7 -67 9 -69 7 -8 2 73 -6 104 -5 19 -6 6 -3 -35z"/>
<path d="M9584 6591 c-18 -11 -35 -25 -40 -33 -4 -8 0 -6 12 3 10 9 33 24 49
32 17 9 26 16 20 17 -5 0 -24 -9 -41 -19z"/>
<path d="M6957 6573 c-3 -10 -8 -43 -11 -73 -5 -53 -5 -53 9 14 8 38 13 71 11
73 -2 3 -7 -4 -9 -14z"/>
<path d="M7021 6574 c0 -11 3 -14 6 -6 3 7 2 16 -1 19 -3 4 -6 -2 -5 -13z"/>
<path d="M9374 6485 c0 -49 1 -71 3 -48 2 23 2 64 0 90 -2 26 -3 8 -3 -42z"/>
<path d="M7011 6524 c0 -11 3 -14 6 -6 3 7 2 16 -1 19 -3 4 -6 -2 -5 -13z"/>
<path d="M9504 6518 l-19 -23 23 19 c21 18 27 26 19 26 -2 0 -12 -10 -23 -22z"/>
<path d="M9450 6480 c-24 -52 -35 -61 -43 -35 -4 12 -5 11 -3 -1 3 -36 26 -23
51 26 15 29 25 54 22 56 -2 2 -14 -19 -27 -46z"/>
<path d="M9154 6420 c0 -58 1 -81 3 -52 2 28 2 76 0 105 -2 28 -3 5 -3 -53z"/>
<path d="M7002 6455 c-1 -22 -5 -58 -7 -80 -5 -35 -4 -37 5 -15 6 13 9 49 7
80 -2 43 -4 46 -5 15z"/>
<path d="M9461 6453 c-10 -21 -21 -54 -25 -73 -6 -38 -4 -34 30 52 26 66 24
76 -5 21z"/>
<path d="M9093 6335 c0 -27 2 -38 4 -22 2 15 2 37 0 50 -2 12 -4 0 -4 -28z"/>
<path d="M6942 6340 c0 -14 2 -19 5 -12 2 6 2 18 0 25 -3 6 -5 1 -5 -13z"/>
<path d="M9136 6254 c-4 -31 -5 -59 -2 -61 2 -3 8 21 11 52 4 31 5 58 3 61 -3
2 -8 -21 -12 -52z"/>
<path d="M7002 6245 c0 -16 2 -22 5 -12 2 9 2 23 0 30 -3 6 -5 -1 -5 -18z"/>
<path d="M9082 6250 c0 -14 2 -19 5 -12 2 6 2 18 0 25 -3 6 -5 1 -5 -13z"/>
<path d="M9071 6204 c0 -11 3 -14 6 -6 3 7 2 16 -1 19 -3 4 -6 -2 -5 -13z"/>
<path d="M9361 6204 c0 -11 3 -14 6 -6 3 7 2 16 -1 19 -3 4 -6 -2 -5 -13z"/>
<path d="M7011 6184 c0 -11 3 -14 6 -6 3 7 2 16 -1 19 -3 4 -6 -2 -5 -13z"/>
<path d="M9920 6160 l-105 -6 100 -1 c55 0 114 3 130 7 36 9 32 9 -125 0z"/>
<path d="M7026 6125 c6 -43 63 -199 70 -192 2 2 -3 21 -13 43 -9 21 -27 73
-40 114 -14 45 -21 59 -17 35z"/>
<path d="M9329 6053 c-15 -59 -30 -117 -33 -128 -3 -11 0 -6 9 12 20 42 57
189 53 209 -2 8 -15 -34 -29 -93z"/>
<path d="M10069 6143 c-13 -16 -12 -17 4 -4 9 7 17 15 17 17 0 8 -8 3 -21 -13z"/>
<path d="M9356 6044 c-15 -59 -25 -109 -22 -111 6 -6 30 73 46 151 20 98 5 72
-24 -40z"/>
<path d="M9748 6143 c7 -3 16 -2 19 1 4 3 -2 6 -13 5 -11 0 -14 -3 -6 -6z"/>
<path d="M9051 6124 c0 -11 3 -14 6 -6 3 7 2 16 -1 19 -3 4 -6 -2 -5 -13z"/>
<path d="M9649 6113 c-64 -32 -174 -140 -207 -203 -14 -28 -16 -35 -5 -20 105
146 166 200 258 234 22 8 33 15 24 15 -8 1 -40 -11 -70 -26z"/>
<path d="M10038 6098 c-22 -34 -52 -95 -41 -83 13 14 65 105 60 105 -3 0 -11
-10 -19 -22z"/>
<path d="M6971 6090 c0 -8 6 -28 14 -45 l14 -30 -6 30 c-7 38 -22 68 -22 45z"/>
<path d="M9101 6084 c0 -11 3 -14 6 -6 3 7 2 16 -1 19 -3 4 -6 -2 -5 -13z"/>
<path d="M9749 6042 c-106 -48 -262 -148 -309 -199 l-35 -38 35 31 c83 76 217
155 390 232 14 6 21 11 15 11 -5 0 -49 -16 -96 -37z"/>
<path d="M9771 6005 c-79 -41 -149 -79 -155 -85 -9 -9 300 145 313 157 21 17
-38 -10 -158 -72z"/>
<path d="M8978 5941 c-26 -53 -41 -87 -32 -76 20 24 88 164 83 169 -2 2 -25
-40 -51 -93z"/>
<path d="M9038 5930 c-20 -44 -34 -80 -32 -80 7 0 76 151 72 156 -2 2 -20 -33
-40 -76z"/>
<path d="M7011 5975 c0 -5 6 -21 14 -35 8 -14 14 -20 14 -15 0 6 -6 21 -14 35
-8 14 -14 21 -14 15z"/>
<path d="M9911 5909 c-29 -33 -76 -73 -105 -89 -58 -34 -56 -40 3 -10 43 21
131 103 150 138 6 12 10 22 9 22 -2 0 -27 -28 -57 -61z"/>
<path d="M9543 5875 c-28 -19 -55 -39 -58 -46 -6 -9 83 49 110 73 21 19 -4 6
-52 -27z"/>
<path d="M7147 5832 c15 -30 45 -73 66 -95 32 -36 29 -30 -15 34 -29 42 -59
85 -66 95 -7 11 0 -5 15 -34z"/>
<path d="M7060 5864 c0 -6 26 -51 59 -100 110 -166 271 -304 462 -393 46 -22
98 -42 114 -46 17 -4 -6 9 -51 27 -232 97 -421 256 -544 458 -22 36 -40 60
-40 54z"/>
<path d="M9213 5741 c-35 -69 -55 -117 -47 -106 19 24 118 225 113 229 -2 2
-32 -53 -66 -123z"/>
<path d="M8980 5820 c-6 -11 -8 -20 -6 -20 3 0 10 9 16 20 6 11 8 20 6 20 -3
0 -10 -9 -16 -20z"/>
<path d="M9271 5779 c-12 -29 -20 -54 -17 -56 2 -2 13 19 25 48 12 28 20 53
18 55 -2 3 -14 -19 -26 -47z"/>
<path d="M9425 5784 c-30 -27 -32 -31 -9 -16 28 19 62 53 53 52 -2 -1 -22 -17
-44 -36z"/>
<path d="M8870 5763 c-19 -27 -63 -80 -99 -119 -38 -41 -30 -34 19 16 47 48
93 102 103 119 27 46 15 38 -23 -16z"/>
<path d="M9303 5710 c-46 -50 -83 -95 -83 -102 1 -7 10 -2 20 12 62 78 82 100
91 100 6 0 7 -6 3 -12 -6 -10 -5 -10 7 -1 8 7 26 17 40 23 23 10 23 10 -4 5
-32 -6 -30 2 6 43 11 12 16 22 11 22 -5 -1 -46 -41 -91 -90z"/>
<path d="M8930 5743 c-19 -27 -72 -88 -119 -137 -57 -59 -71 -77 -41 -53 47
37 148 152 182 206 31 48 15 37 -22 -16z"/>
<path d="M9658 5763 c7 -3 16 -2 19 1 4 3 -2 6 -13 5 -11 0 -14 -3 -6 -6z"/>
<path d="M9593 5753 c9 -2 25 -2 35 0 9 3 1 5 -18 5 -19 0 -27 -2 -17 -5z"/>
<path d="M9428 5743 c12 -2 32 -2 45 0 12 2 2 4 -23 4 -25 0 -35 -2 -22 -4z"/>
<path d="M7290 5646 c25 -26 63 -62 85 -79 46 -35 26 -14 -65 69 -58 52 -60
53 -20 10z"/>
<path d="M9210 5654 c-12 -19 -20 -37 -18 -39 2 -3 15 13 27 35 28 50 21 53
-9 4z"/>
<path d="M9121 5486 c-106 -123 -214 -223 -309 -287 -88 -58 -100 -68 -57 -46
94 48 280 214 396 355 87 104 65 89 -30 -22z"/>
<path d="M9045 5488 c-59 -71 -149 -159 -245 -239 -14 -11 -3 -6 24 13 61 41
220 198 264 261 18 26 31 47 29 47 -2 0 -35 -37 -72 -82z"/>
<path d="M6430 5541 c42 -36 248 -183 254 -182 15 3 -6 20 -117 95 -151 103
-170 115 -137 87z"/>
<path d="M8612 5516 c-78 -54 -90 -66 -34 -35 40 22 113 78 102 78 -3 0 -33
-20 -68 -43z"/>
<path d="M8634 5462 c-110 -72 -111 -73 -74 -56 39 19 150 92 150 99 0 7 2 8
-76 -43z"/>
<path d="M7470 5496 c0 -3 14 -12 30 -21 17 -9 30 -13 30 -11 0 3 -13 12 -30
21 -16 9 -30 13 -30 11z"/>
<path d="M7650 5400 c8 -5 20 -10 25 -10 6 0 3 5 -5 10 -8 5 -19 10 -25 10 -5
0 -3 -5 5 -10z"/>
<path d="M8400 5400 c-8 -5 -10 -10 -5 -10 6 0 17 5 25 10 8 5 11 10 5 10 -5
0 -17 -5 -25 -10z"/>
<path d="M7761 5360 c9 -5 36 -12 60 -15 42 -5 41 -4 -11 10 -65 17 -70 17
-49 5z"/>
<path d="M8255 5355 c-22 -8 -31 -13 -20 -13 11 0 36 6 55 13 45 17 18 17 -35
0z"/>
<path d="M8450 5360 c-8 -5 -10 -10 -5 -10 6 0 17 5 25 10 8 5 11 10 5 10 -5
0 -17 -5 -25 -10z"/>
<path d="M6706 5351 c-3 -5 18 -24 47 -43 62 -41 97 -61 97 -54 0 3 -14 13
-31 21 -17 9 -29 19 -26 22 3 2 15 0 26 -7 12 -6 21 -8 21 -6 0 3 -14 13 -31
22 -19 9 -28 11 -24 4 5 -8 3 -11 -6 -8 -8 3 -13 10 -12 16 2 7 -4 9 -14 5
-11 -4 -14 -2 -9 5 3 6 -2 16 -13 22 -11 5 -22 6 -25 1z"/>
<path d="M8400 5340 c-8 -5 -10 -10 -5 -10 6 0 17 5 25 10 8 5 11 10 5 10 -5
0 -17 -5 -25 -10z"/>
<path d="M7905 5329 c22 -4 54 -8 70 -7 22 0 19 3 -15 9 -60 10 -108 9 -55 -2z"/>
<path d="M8178 5333 c7 -3 16 -2 19 1 4 3 -2 6 -13 5 -11 0 -14 -3 -6 -6z"/>
<path d="M8358 5323 c7 -3 16 -2 19 1 4 3 -2 6 -13 5 -11 0 -14 -3 -6 -6z"/>
<path d="M7740 5311 c8 -5 33 -12 55 -15 l40 -6 -45 15 c-50 16 -73 19 -50 6z"/>
<path d="M8260 5300 c-20 -6 -21 -8 -5 -8 11 0 29 3 40 8 25 11 -1 11 -35 0z"/>
<path d="M7880 5280 c46 -9 127 -13 119 -6 -2 2 -40 6 -84 9 -60 4 -69 3 -35
-3z"/>
<path d="M8125 5280 c-48 -7 -49 -7 -10 -8 22 0 58 3 80 7 33 7 35 9 10 8 -16
0 -52 -3 -80 -7z"/>
<path d="M6880 5231 c53 -44 402 -202 442 -201 7 1 -41 22 -107 49 -137 54
-275 122 -259 128 5 2 41 -10 78 -27 38 -17 70 -29 72 -27 2 2 -40 23 -93 48
-106 48 -133 59 -90 34 44 -25 24 -29 -25 -5 -42 21 -43 21 -18 1z"/>
<path d="M8733 5209 c-35 -22 -46 -37 -15 -20 22 13 58 40 52 41 -3 0 -20 -10
-37 -21z"/>
<path d="M8658 5164 c-38 -20 -36 -28 2 -9 17 9 30 18 30 20 0 7 -1 6 -32 -11z"/>
<path d="M7171 5126 c8 -8 180 -66 193 -65 6 0 -26 13 -72 29 -110 38 -128 44
-121 36z"/>
<path d="M8535 5104 c-27 -13 -39 -21 -25 -18 29 7 100 43 85 43 -5 0 -32 -12
-60 -25z"/>
<path d="M8450 5070 c-8 -5 -10 -10 -5 -10 6 0 17 5 25 10 8 5 11 10 5 10 -5
0 -17 -5 -25 -10z"/>
<path d="M8505 5040 c-22 -11 -29 -17 -15 -14 29 8 80 33 65 33 -5 0 -28 -8
-50 -19z"/>
<path d="M7461 5035 c7 -6 147 -35 167 -34 9 1 -21 9 -68 20 -91 19 -106 22
-99 14z"/>
<path d="M8348 5033 c7 -3 16 -2 19 1 4 3 -2 6 -13 5 -11 0 -14 -3 -6 -6z"/>
<path d="M7355 5020 c11 -5 27 -9 35 -9 9 0 8 4 -5 9 -11 5 -27 9 -35 9 -9 0
-8 -4 5 -9z"/>
<path d="M8308 5023 c7 -3 16 -2 19 1 4 3 -2 6 -13 5 -11 0 -14 -3 -6 -6z"/>
<path d="M7418 5003 c7 -3 16 -2 19 1 4 3 -2 6 -13 5 -11 0 -14 -3 -6 -6z"/>
<path d="M8218 5003 c6 -2 18 -2 25 0 6 3 1 5 -13 5 -14 0 -19 -2 -12 -5z"/>
<path d="M7475 4989 c76 -24 240 -50 335 -54 l105 -4 -130 14 c-71 8 -170 24
-220 35 -92 21 -144 26 -90 9z"/>
<path d="M7673 4993 c9 -2 23 -2 30 0 6 3 -1 5 -18 5 -16 0 -22 -2 -12 -5z"/>
<path d="M8153 4993 c9 -2 23 -2 30 0 6 3 -1 5 -18 5 -16 0 -22 -2 -12 -5z"/>
<path d="M7773 4983 c15 -2 37 -2 50 0 12 2 0 4 -28 4 -27 0 -38 -2 -22 -4z"/>
<path d="M8058 4983 c12 -2 32 -2 45 0 12 2 2 4 -23 4 -25 0 -35 -2 -22 -4z"/>
<path d="M7898 4973 c6 -2 18 -2 25 0 6 3 1 5 -13 5 -14 0 -19 -2 -12 -5z"/>
<path d="M8275 4970 c-27 -7 -28 -8 -5 -8 14 0 34 3 45 8 25 11 2 11 -40 0z"/>
<path d="M8198 4953 c7 -3 16 -2 19 1 4 3 -2 6 -13 5 -11 0 -14 -3 -6 -6z"/>
<path d="M8118 4943 c7 -3 16 -2 19 1 4 3 -2 6 -13 5 -11 0 -14 -3 -6 -6z"/>
<path d="M1850 4526 c0 -3 8 -14 19 -25 24 -24 30 -136 31 -515 0 -235 -3
-284 -16 -312 -9 -19 -20 -34 -25 -34 -5 0 -9 -4 -9 -8 0 -7 112 -10 129 -3 2
0 -7 10 -20 20 l-24 19 -3 363 c-2 224 1 360 7 354 8 -10 205 -430 306 -658
27 -59 52 -104 56 -100 8 8 26 48 197 434 123 276 144 319 154 319 4 0 8 -155
8 -345 0 -335 -5 -395 -32 -395 -5 0 -7 -4 -4 -9 7 -10 176 -15 176 -5 0 4 -8
16 -17 27 -17 18 -18 52 -18 422 0 370 1 405 18 422 23 26 22 29 -10 27 -16 0
-47 -2 -69 -2 -40 -2 -42 -4 -67 -59 -111 -253 -252 -568 -274 -613 l-27 -54
-45 95 c-50 104 -213 454 -260 562 l-30 67 -53 0 c-29 0 -63 3 -75 6 -13 4
-23 4 -23 0z"/>
<path d="M3790 4508 c-18 -41 -131 -321 -170 -418 -111 -281 -166 -404 -192
-432 -15 -16 -28 -31 -28 -32 0 -1 101 1 113 3 5 0 1 8 -7 17 -9 8 -16 21 -16
27 1 7 25 68 54 137 l53 125 183 0 184 0 50 -115 c48 -113 57 -149 42 -181 -6
-14 5 -15 89 -15 52 1 95 2 95 4 0 1 -13 15 -29 30 -20 19 -64 110 -151 317
-220 521 -235 555 -248 555 -7 0 -17 -10 -22 -22z m55 -288 c31 -74 68 -159
81 -189 13 -29 24 -55 24 -57 0 -2 -77 -4 -171 -4 -94 0 -169 4 -167 8 2 4 39
94 83 200 43 105 82 188 86 184 4 -4 33 -68 64 -142z"/>
<path d="M4866 4523 c-48 -4 -48 -4 -30 -25 18 -19 19 -45 19 -423 0 -370 -1
-404 -17 -422 -32 -35 -28 -36 96 -26 39 3 63 9 56 13 -19 12 -29 90 -29 246
l-1 140 28 27 28 27 60 -63 c49 -50 243 -269 302 -339 7 -9 15 -25 16 -35 3
-16 13 -18 92 -18 49 0 93 2 97 3 4 2 -11 16 -35 31 -24 15 -110 104 -192 197
-82 93 -174 194 -204 225 -30 32 -53 62 -51 68 8 22 348 338 378 351 44 18 32
25 -38 22 -56 -4 -61 -6 -61 -27 0 -17 -53 -74 -201 -217 -110 -106 -205 -195
-210 -197 -7 -2 -9 64 -7 197 3 173 5 203 21 219 9 11 17 23 17 26 0 7 -42 7
-134 0z"/>
<path d="M6170 4520 c0 -4 7 -13 15 -20 22 -18 23 -816 0 -846 -25 -32 -27
-32 119 -26 46 2 48 3 30 16 -18 13 -19 28 -19 218 l0 203 243 3 242 2 0 -189
c0 -182 -8 -241 -32 -241 -5 0 -6 -5 -3 -10 5 -9 175 -11 175 -2 0 2 -7 10
-15 18 -12 13 -15 56 -17 242 -4 390 2 595 19 614 14 15 8 17 -72 20 -48 2
-88 1 -91 -1 -2 -2 6 -15 16 -29 18 -22 20 -41 20 -208 l0 -184 -245 0 -245 0
0 180 c0 174 8 230 33 230 6 0 7 3 4 7 -9 9 -177 12 -177 3z"/>
<path d="M7580 4522 c0 -2 9 -15 20 -29 19 -25 20 -41 20 -418 0 -377 -1 -393
-20 -418 -11 -14 -20 -27 -20 -29 0 -5 120 -7 120 -2 0 3 -9 17 -20 31 -19 25
-20 41 -20 381 0 195 3 352 7 349 6 -6 59 -124 266 -585 62 -140 84 -179 93
-170 10 11 47 93 239 528 23 52 56 124 73 160 l30 65 1 -356 c1 -298 -1 -358
-14 -375 -8 -10 -15 -22 -15 -25 0 -5 164 -5 178 0 1 1 -7 10 -18 21 -19 19
-20 33 -20 425 0 392 1 406 20 425 l20 20 -60 0 c-33 0 -63 1 -67 1 -11 2 -29
-36 -148 -311 -142 -329 -179 -410 -186 -410 -5 0 -80 160 -258 554 l-77 169
-72 1 c-40 1 -72 -1 -72 -2z"/>
<path d="M9439 4503 c-6 -15 -22 -57 -35 -91 -13 -35 -85 -213 -160 -395 -101
-246 -143 -339 -165 -359 -16 -15 -29 -29 -29 -32 0 -3 101 0 119 3 3 1 0 6
-7 13 -20 20 -14 49 37 174 l48 119 184 2 184 3 49 -118 c48 -115 56 -152 43
-182 -6 -13 7 -16 83 -18 49 -2 90 0 90 5 0 4 -10 18 -23 29 -12 12 -33 48
-46 80 -14 33 -65 156 -114 274 -50 118 -118 283 -152 365 -66 157 -85 181
-106 128z m30 -216 c96 -231 121 -293 121 -304 0 -10 -39 -13 -161 -13 l-161
0 6 23 c9 35 150 376 156 377 3 0 20 -37 39 -83z"/>
<path d="M10420 4519 c0 -4 7 -12 15 -19 13 -11 15 -70 15 -425 0 -355 -2
-414 -15 -425 -8 -7 -15 -16 -15 -21 0 -4 127 -7 282 -6 l282 2 7 35 c4 19 9
50 13 69 l6 34 -34 -35 c-53 -55 -106 -68 -273 -68 l-143 0 0 401 c0 396 3
431 33 451 6 3 -31 8 -81 10 -51 2 -92 0 -92 -3z"/>
<path d="M6357 3161 c-3 -12 -1 -19 3 -16 5 3 11 -4 15 -15 8 -25 84 -90 104
-90 9 1 3 8 -14 17 -46 24 -66 45 -85 86 -15 33 -18 35 -23 18z"/>
<path d="M6307 3085 c-15 -14 -24 -25 -19 -25 5 0 19 11 32 25 30 32 23 32
-13 0z"/>
<path d="M6245 3050 c-3 -5 1 -10 9 -10 9 0 16 5 16 10 0 6 -4 10 -9 10 -6 0
-13 -4 -16 -10z"/>
<path d="M2621 3046 c2 -3 610 -7 1349 -10 740 -3 1399 -8 1465 -11 85 -5 116
-4 105 4 -11 7 33 11 155 13 94 2 -561 5 -1454 6 -893 1 -1622 0 -1620 -2z"/>
<path d="M6832 3038 c3 -9 29 -14 74 -15 38 -1 61 1 51 5 -9 4 472 7 1070 7
599 0 1277 2 1508 5 231 3 -283 7 -1143 8 -1247 2 -1563 -1 -1560 -10z m66 -5
c-10 -2 -26 -2 -35 0 -10 3 -2 5 17 5 19 0 27 -2 18 -5z"/>
<path d="M6401 3005 c-17 -20 -31 -40 -31 -46 0 -6 -4 -8 -9 -5 -4 3 -6 -6 -3
-20 5 -25 5 -24 18 12 7 22 27 51 44 67 17 15 26 27 21 27 -5 0 -23 -16 -40
-35z"/>
<path d="M5718 3023 c18 -2 45 -2 60 0 15 2 0 4 -33 4 -33 0 -45 -2 -27 -4z"/>
<path d="M6315 3010 c10 -11 20 -20 23 -20 3 0 -3 9 -13 20 -10 11 -20 20 -23
20 -3 0 3 -9 13 -20z"/>
<path d="M3625 2600 c-13 -6 -15 -9 -5 -9 8 0 22 4 30 9 18 12 2 12 -25 0z"/>
<path d="M4970 2600 c-36 -9 -74 -45 -64 -61 3 -5 21 4 40 21 27 23 44 30 76
30 23 0 39 2 37 4 -11 9 -58 13 -89 6z m-10 -13 c0 -2 -11 -14 -25 -27 -14
-13 -25 -21 -25 -17 0 3 10 15 22 27 21 19 28 24 28 17z"/>
<path d="M5356 2594 c-8 -22 -4 -25 11 -9 7 8 9 16 4 19 -5 3 -12 -1 -15 -10z"/>
<path d="M6599 2590 l-24 -21 30 14 c21 10 38 12 55 6 24 -9 24 -8 6 6 -26 20
-39 19 -67 -5z"/>
<path d="M7910 2600 c0 -6 4 -9 9 -6 5 4 12 1 14 -4 3 -6 4 -5 3 2 -3 15 -26
23 -26 8z"/>
<path d="M9100 2600 c-9 -6 -10 -10 -3 -10 6 0 15 5 18 10 8 12 4 12 -15 0z"/>
<path d="M3680 2593 c8 -3 22 -11 30 -17 13 -10 13 -9 1 7 -7 9 -21 17 -30 16
-13 0 -14 -1 -1 -6z"/>
<path d="M3918 2593 c7 -3 16 -2 19 1 4 3 -2 6 -13 5 -11 0 -14 -3 -6 -6z"/>
<path d="M4277 2592 c9 -6 12 -42 10 -125 -1 -64 1 -117 5 -117 5 0 8 56 8
125 0 112 -2 125 -17 125 -13 0 -14 -3 -6 -8z"/>
<path d="M4508 2593 c7 -3 16 -2 19 1 4 3 -2 6 -13 5 -11 0 -14 -3 -6 -6z"/>
<path d="M4675 2511 c0 -49 3 -93 8 -97 4 -4 7 36 7 89 0 54 -3 97 -7 97 -5 0
-8 -40 -8 -89z"/>
<path d="M5663 2550 c0 -30 2 -43 4 -27 2 15 2 39 0 55 -2 15 -4 2 -4 -28z"/>
<path d="M5693 2593 c9 -2 25 -2 35 0 9 3 1 5 -18 5 -19 0 -27 -2 -17 -5z"/>
<path d="M6057 2593 c18 -2 50 -2 70 0 21 2 7 4 -32 4 -38 0 -55 -2 -38 -4z"/>
<path d="M7168 2593 c18 -2 45 -2 60 0 15 2 0 4 -33 4 -33 0 -45 -2 -27 -4z"/>
<path d="M7502 2478 l-2 -128 45 0 c26 0 45 5 45 11 0 7 -15 10 -40 7 l-39 -3
-4 120 -3 120 -2 -127z"/>
<path d="M7547 2593 c18 -2 50 -2 70 0 21 2 7 4 -32 4 -38 0 -55 -2 -38 -4z"/>
<path d="M8598 2593 c12 -2 32 -2 45 0 12 2 2 4 -23 4 -25 0 -35 -2 -22 -4z"/>
<path d="M8698 2593 c12 -2 32 -2 45 0 12 2 2 4 -23 4 -25 0 -35 -2 -22 -4z"/>
<path d="M8928 2593 c7 -3 16 -2 19 1 4 3 -2 6 -13 5 -11 0 -14 -3 -6 -6z"/>
<path d="M5381 2569 c-1 -19 40 -121 46 -115 2 2 -5 26 -16 53 -10 26 -22 55
-24 63 -5 12 -6 12 -6 -1z"/>
<path d="M6013 2545 c0 -22 2 -30 4 -17 2 12 2 30 0 40 -3 9 -5 -1 -4 -23z"/>
<path d="M7881 2523 c-24 -62 -22 -82 3 -34 27 51 36 80 27 85 -5 3 -18 -20
-30 -51z"/>
<path d="M8960 2560 c6 -11 13 -20 16 -20 2 0 0 9 -6 20 -6 11 -13 20 -16 20
-2 0 0 -9 6 -20z"/>
<path d="M6680 2560 c0 -8 -10 -25 -22 -38 l-23 -25 22 12 c22 11 40 47 29 58
-3 4 -6 0 -6 -7z"/>
<path d="M5331 2529 c-14 -42 -7 -49 9 -9 7 17 10 33 8 36 -3 3 -11 -9 -17
-27z"/>
<path d="M6580 2544 c0 -23 26 -51 37 -41 3 4 -2 9 -11 13 -9 3 -14 9 -12 13
3 4 1 13 -5 21 -7 12 -9 11 -9 -6z"/>
<path d="M7274 2553 c4 -7 2 -22 -4 -33 -6 -12 -7 -20 -1 -20 16 0 24 41 11
54 -10 8 -11 8 -6 -1z"/>
<path d="M7930 2553 c0 -5 5 -15 10 -23 8 -12 10 -11 10 8 0 12 -4 22 -10 22
-5 0 -10 -3 -10 -7z"/>
<path d="M8987 2506 c3 -15 9 -29 14 -31 10 -7 2 36 -10 48 -5 5 -6 -2 -4 -17z"/>
<path d="M4586 2500 c5 -8 9 -20 10 -27 3 -16 56 -85 61 -79 7 6 -22 57 -52
91 -15 17 -23 23 -19 15z"/>
<path d="M7950 2503 c1 -5 8 -19 16 -33 8 -14 13 -17 10 -7 -3 10 -6 25 -6 33
0 8 -4 14 -10 14 -5 0 -10 -3 -10 -7z"/>
<path d="M8381 2487 c-9 -11 -12 -31 -8 -57 3 -22 2 -38 -3 -35 -4 3 -13 -2
-19 -9 -17 -21 4 -30 23 -10 20 20 28 52 24 94 -3 30 -4 32 -17 17z"/>
<path d="M3660 2480 c8 -5 20 -10 25 -10 6 0 3 5 -5 10 -8 5 -19 10 -25 10 -5
0 -3 -5 5 -10z"/>
<path d="M6125 2480 c3 -5 8 -10 11 -10 2 0 4 5 4 10 0 6 -5 10 -11 10 -5 0
-7 -4 -4 -10z"/>
<path d="M7530 2480 c0 -5 20 -10 45 -10 25 0 45 5 45 10 0 6 -20 10 -45 10
-25 0 -45 -4 -45 -10z"/>
<path d="M6567 2462 c-9 -9 -15 -32 -15 -50 2 -60 70 -81 134 -41 27 16 34 18
34 6 0 -8 7 -18 16 -21 29 -11 26 0 -6 27 -31 26 -31 26 -50 7 -23 -23 -82
-27 -97 -7 -22 26 -21 67 1 82 11 8 16 15 10 15 -6 0 -18 -8 -27 -18z"/>
<path d="M3990 2466 c0 -2 8 -10 18 -17 15 -13 16 -12 3 4 -13 16 -21 21 -21
13z"/>
<path d="M6735 2459 c-4 -6 -5 -12 -2 -15 2 -3 7 2 10 11 7 17 1 20 -8 4z"/>
<path d="M5661 2408 c-1 -32 3 -58 8 -58 5 0 6 21 4 48 -7 70 -11 74 -12 10z"/>
<path d="M6013 2405 c0 -33 2 -45 4 -27 2 18 2 45 0 60 -2 15 -4 0 -4 -33z"/>
<path d="M5750 2430 c13 -24 17 -25 17 -5 0 8 -6 16 -14 19 -11 4 -11 1 -3
-14z"/>
<path d="M8670 2406 c0 -26 -5 -46 -12 -49 -8 -3 -6 -6 5 -6 14 -1 17 8 17 49
0 28 -2 50 -5 50 -3 0 -5 -20 -5 -44z"/>
<path d="M9019 2405 c-5 -50 -4 -63 7 -53 3 3 4 28 2 54 l-3 49 -6 -50z"/>
<path d="M4014 2413 c16 -18 33 -30 37 -27 5 3 14 -4 21 -16 7 -11 17 -20 22
-20 6 0 -5 16 -24 35 -18 19 -36 33 -39 30 -2 -3 -14 3 -25 12 -12 10 -8 3 8
-14z"/>
<path d="M5330 2430 c-11 -7 2 -10 43 -10 36 0 56 4 52 10 -8 13 -75 13 -95 0z"/>
<path d="M7880 2430 c-11 -7 0 -10 38 -10 28 0 52 5 52 10 0 13 -70 13 -90 0z"/>
<path d="M5273 2390 c-15 -28 -18 -40 -8 -40 14 0 39 52 34 69 -2 6 -14 -7
-26 -29z"/>
<path d="M3921 2404 c0 -11 3 -14 6 -6 3 7 2 16 -1 19 -3 4 -6 -2 -5 -13z"/>
<path d="M4916 2401 c-18 -29 77 -55 139 -38 11 3 23 6 28 6 4 1 7 8 7 17 0
14 -2 14 -22 0 -31 -22 -90 -20 -121 4 -14 11 -28 16 -31 11z m25 -18 c13 -16
12 -17 -3 -4 -17 13 -22 21 -14 21 2 0 10 -8 17 -17z"/>
<path d="M3575 2391 c-3 -6 -4 -15 -1 -20 9 -13 66 -22 84 -12 11 6 9 9 -12 9
-15 0 -35 7 -45 16 -13 11 -21 14 -26 7z"/>
<path d="M5776 2388 c3 -5 10 -6 15 -3 13 9 11 12 -6 12 -8 0 -12 -4 -9 -9z"/>
<path d="M8222 2390 c7 -25 55 -43 86 -32 27 10 27 10 -8 11 -20 1 -41 6 -48
13 -7 7 -12 8 -12 3 0 -6 -5 -3 -11 5 -9 13 -10 13 -7 0z"/>
<path d="M8016 2365 c-3 -8 -1 -15 4 -15 6 0 10 7 10 15 0 8 -2 15 -4 15 -2 0
-6 -7 -10 -15z"/>
<path d="M3920 2360 c0 -5 5 -10 11 -10 5 0 7 5 4 10 -3 6 -8 10 -11 10 -2 0
-4 -4 -4 -10z"/>
<path d="M5460 2360 c0 -5 5 -10 11 -10 5 0 7 5 4 10 -3 6 -8 10 -11 10 -2 0
-4 -4 -4 -10z"/>
<path d="M6040 2362 c0 -5 27 -10 60 -11 37 -1 60 2 60 8 0 7 -25 11 -60 11
-33 0 -60 -4 -60 -8z"/>
<path d="M7160 2360 c0 -12 47 -12 75 0 15 6 8 9 -27 9 -27 1 -48 -3 -48 -9z"/>
<path d="M7815 2360 c-3 -5 -1 -10 4 -10 6 0 11 5 11 10 0 6 -2 10 -4 10 -3 0
-8 -4 -11 -10z"/>
<path d="M5808 2353 c7 -3 16 -2 19 1 4 3 -2 6 -13 5 -11 0 -14 -3 -6 -6z"/>
<path d="M6620 1721 c0 -118 1 -121 25 -137 33 -22 149 -13 204 16 l38 19 22
-22 c20 -21 31 -22 192 -24 218 -3 209 -9 209 152 0 96 -3 115 -15 115 -12 0
-15 -19 -15 -115 0 -136 4 -133 -129 -116 -3 1 0 6 7 13 34 34 -3 111 -53 111
-53 0 -84 -66 -48 -105 15 -17 13 -18 -55 -18 -76 0 -97 12 -63 36 26 19 27
34 2 34 -10 0 -38 9 -62 20 -49 22 -100 26 -130 10 -32 -18 -22 -31 20 -24 39
6 106 -9 117 -27 8 -14 -73 -46 -137 -54 -92 -11 -98 -4 -101 122 -2 74 -7
108 -15 111 -10 3 -13 -25 -13 -117z m508 -33 c30 -30 0 -78 -37 -58 -32 17
-21 70 14 70 6 0 16 -5 23 -12z"/>
<path d="M7397 1833 c-4 -3 -7 -64 -7 -135 0 -107 2 -128 15 -128 13 0 15 22
15 135 0 123 -4 147 -23 128z"/>
<path d="M8311 1826 c-9 -10 -8 -16 3 -25 10 -9 16 -8 25 3 9 10 8 16 -3 25
-10 9 -16 8 -25 -3z"/>
<path d="M8371 1827 c-9 -11 -8 -17 4 -27 12 -10 16 -9 21 5 9 23 -10 40 -25
22z"/>
<path d="M9167 1834 c-4 -4 -7 -56 -7 -116 l0 -109 -52 3 c-49 3 -52 5 -63 37
-6 19 -23 44 -38 54 -35 27 -74 10 -109 -47 -19 -32 -34 -45 -58 -49 -48 -10
-70 6 -70 53 0 29 -4 40 -15 40 -11 0 -15 -12 -15 -44 0 -36 -4 -46 -20 -51
-30 -9 -50 12 -50 51 0 24 -5 34 -15 34 -10 0 -15 -11 -15 -35 0 -28 -5 -38
-25 -47 -33 -15 -55 4 -55 48 0 49 -28 46 -32 -3 l-3 -38 -55 0 -55 0 -3 68
c-2 49 -7 67 -17 67 -8 0 -16 -4 -19 -9 -3 -4 -19 -11 -35 -14 -96 -20 -94
-134 3 -125 30 3 45 -1 59 -15 15 -15 28 -18 70 -13 70 8 77 8 115 0 18 -4 38
-2 45 5 10 8 22 7 45 -1 23 -9 37 -9 57 0 18 8 32 9 45 2 26 -14 70 -12 101 4
22 11 29 11 44 0 23 -17 87 -18 103 -2 9 9 15 9 24 0 16 -16 100 -15 122 1 14
10 17 31 19 131 2 112 -5 141 -26 120z m-787 -159 c0 -29 -4 -36 -26 -41 -29
-7 -61 16 -49 36 6 9 57 37 73 40 1 0 2 -16 2 -35z m630 -14 c25 -47 -7 -73
-61 -51 -34 14 -34 18 -13 48 19 27 60 29 74 3z"/>
<path d="M4550 1816 c0 -8 4 -17 9 -20 11 -7 33 18 24 27 -12 12 -33 7 -33 -7z"/>
<path d="M4606 1821 c-7 -11 18 -33 27 -24 4 3 7 12 7 20 0 15 -26 18 -34 4z"/>
<path d="M6166 1821 c-3 -5 1 -14 8 -20 16 -13 32 2 21 19 -8 12 -22 13 -29 1z"/>
<path d="M6220 1816 c0 -8 4 -17 8 -20 13 -8 35 11 28 23 -10 16 -36 14 -36
-3z"/>
<path d="M7090 1800 c0 -15 5 -20 18 -18 9 2 17 10 17 18 0 8 -8 16 -17 18
-13 2 -18 -3 -18 -18z"/>
<path d="M4260 1795 c-10 -12 -9 -16 5 -21 23 -9 40 10 22 25 -11 9 -17 8 -27
-4z"/>
<path d="M4314 1799 c-10 -17 13 -36 27 -22 12 12 4 33 -11 33 -5 0 -12 -5
-16 -11z"/>
<path d="M5505 1801 c-8 -15 3 -31 21 -31 9 0 14 7 12 17 -4 20 -24 28 -33 14z"/>
<path d="M6795 1800 c-10 -16 16 -43 28 -31 11 11 2 41 -12 41 -5 0 -13 -5
-16 -10z"/>
<path d="M4114 1736 c-3 -8 4 -36 15 -62 28 -62 16 -79 -50 -70 -37 5 -48 3
-53 -9 -8 -22 16 -29 77 -21 59 8 63 8 135 0 71 -8 102 11 102 64 0 52 -10 82
-27 82 -12 0 -13 -10 -8 -55 l7 -55 -60 0 -60 0 -29 70 c-28 70 -39 82 -49 56z"/>
<path d="M4620 1740 c0 -5 -11 -10 -24 -10 -33 0 -86 -46 -86 -75 0 -38 27
-57 74 -53 28 3 44 0 52 -10 14 -19 95 -27 122 -13 16 8 33 8 67 -1 39 -10 50
-10 73 3 39 21 43 79 8 114 -43 43 -90 26 -127 -46 -20 -40 -20 -40 -72 -37
l-52 3 -3 68 c-2 51 -6 67 -17 67 -8 0 -15 -4 -15 -10z m-2 -72 c-3 -29 -7
-33 -36 -36 -23 -2 -34 1 -39 14 -8 20 29 54 59 54 16 0 19 -6 16 -32z m266 6
c25 -24 20 -63 -8 -70 -55 -13 -88 39 -44 70 28 20 33 20 52 0z"/>
<path d="M6236 1741 c-3 -4 -18 -11 -34 -14 -43 -9 -74 -39 -74 -72 0 -36 27
-57 72 -54 21 2 46 -4 60 -14 30 -21 99 -22 125 -3 17 12 23 12 47 0 35 -18
68 -18 96 2 31 22 30 77 -3 109 -44 45 -84 28 -131 -52 -17 -31 -22 -33 -71
-33 l-53 0 0 70 c0 54 -3 70 -14 70 -8 0 -17 -4 -20 -9z m2 -73 c-3 -29 -7
-33 -36 -36 -23 -2 -34 1 -39 14 -8 20 29 54 59 54 16 0 19 -6 16 -32z m264 5
c27 -24 23 -61 -6 -69 -29 -7 -66 11 -66 31 0 15 34 55 47 55 3 0 15 -7 25
-17z"/>
<path d="M7694 1739 c-10 -17 13 -36 27 -22 12 12 4 33 -11 33 -5 0 -12 -5
-16 -11z"/>
<path d="M5251 1718 c-36 -19 -36 -34 -1 -69 17 -17 30 -33 28 -34 -2 -2 -32
-4 -67 -6 l-64 -4 -13 45 c-21 71 -70 92 -112 47 -45 -48 -19 -113 46 -120 18
-2 34 -6 37 -9 10 -10 -36 -41 -70 -47 -44 -7 -50 -25 -11 -29 47 -6 76 7 97
42 18 32 23 33 97 41 94 9 106 9 210 0 72 -7 85 -6 102 10 20 18 26 66 14 113
-12 42 -29 17 -26 -36 l4 -52 -81 0 c-45 0 -81 3 -81 6 0 4 11 17 25 30 47 43
26 73 -57 80 -33 3 -62 0 -77 -8z m129 -35 c4 -4 -51 -52 -61 -53 -10 0 -59
41 -59 50 0 17 102 19 120 3z m-286 -15 c26 -36 21 -58 -13 -58 -39 0 -57 23
-43 55 14 31 36 32 56 3z"/>
<path d="M3635 1704 c-9 -9 -19 -29 -22 -45 -3 -16 -12 -29 -19 -29 -30 0 -41
-59 -28 -143 5 -29 10 -35 20 -27 8 8 11 28 8 63 -7 70 2 82 49 62 49 -20 73
-19 97 5 27 27 25 62 -6 99 -29 35 -72 41 -99 15z m81 -39 c20 -31 12 -55 -20
-55 -55 0 -74 31 -40 64 22 23 41 20 60 -9z"/>
<path d="M3847 1703 c-45 -51 -17 -123 49 -123 23 0 34 -5 34 -14 0 -22 -40
-46 -77 -46 -23 0 -33 -5 -33 -15 0 -11 11 -15 39 -15 50 0 98 38 106 84 8 39
-9 109 -31 131 -21 20 -67 19 -87 -2z m67 -29 c9 -8 16 -19 16 -24 0 -5 3 -15
6 -24 5 -12 -1 -16 -23 -16 -32 0 -53 16 -53 40 0 16 18 40 31 40 4 0 15 -7
23 -16z"/>
<path d="M7992 1704 c-12 -8 -29 -30 -38 -47 -22 -42 -31 -47 -81 -47 -41 0
-43 1 -53 41 -7 24 -16 39 -23 36 -13 -5 -13 -12 -3 -73 10 -59 -14 -87 -78
-88 -63 -1 -91 29 -82 86 7 45 -9 52 -25 11 -16 -43 4 -99 43 -119 42 -22 111
-14 144 17 13 12 24 28 24 35 0 7 22 14 58 18 83 9 93 9 138 1 35 -6 45 -4 63
14 29 29 27 76 -4 106 -28 29 -51 31 -83 9z m72 -46 c24 -39 -30 -73 -69 -44
-17 12 -18 17 -7 41 9 20 18 26 39 23 14 -2 31 -11 37 -20z"/>
<path d="M5896 1613 c-14 -15 -5 -43 14 -43 13 0 20 7 20 19 0 19 -23 35 -34
24z"/>
<path d="M5745 1600 c-4 -7 -3 -16 3 -22 14 -14 45 -2 40 15 -6 16 -34 21 -43
7z"/>
</g>
</svg>
